<svg width="500" height="500" viewBox="0 0 500 500" fill="none" xmlns="http://www.w3.org/2000/svg">
<rect width="500" height="500" rx="250" fill="white"/>
<path d="M41.2 247.4V216.6H28C28 211.667 28.9333 207.533 30.8 204.2C32.6667 200.733 36.1333 198.133 41.2 196.4V183.2C37.0667 183.733 33.2 185 29.6 187C26.1333 188.867 23.1333 191.267 20.6 194.2C18.0667 197.133 16.0667 200.533 14.6 204.4C13.2667 208.267 12.6667 212.4 12.8 216.8V247.4H41.2ZM83.8 247.4V216.6H70.6C70.6 211.667 71.5333 207.533 73.4 204.2C75.2667 200.733 78.7333 198.133 83.8 196.4V183.2C79.6667 183.733 75.8 185 72.2 187C68.7333 188.867 65.7333 191.267 63.2 194.2C60.6667 197.133 58.6667 200.533 57.2 204.4C55.8667 208.267 55.2667 212.4 55.4 216.8V247.4H83.8ZM129.778 278.6H99.3781C99.2448 287.4 100.845 295 104.178 301.4C107.511 307.8 111.978 313.067 117.578 317.2C123.311 321.333 129.845 324.333 137.178 326.2C144.645 328.2 152.311 329.2 160.178 329.2C169.911 329.2 178.445 328.067 185.778 325.8C193.245 323.533 199.445 320.4 204.378 316.4C209.445 312.267 213.245 307.4 215.778 301.8C218.311 296.2 219.578 290.133 219.578 283.6C219.578 275.6 217.845 269.067 214.378 264C211.045 258.8 207.045 254.667 202.378 251.6C197.711 248.533 192.978 246.333 188.178 245C183.511 243.533 179.845 242.533 177.178 242C168.245 239.733 160.978 237.867 155.378 236.4C149.911 234.933 145.578 233.467 142.378 232C139.311 230.533 137.245 228.933 136.178 227.2C135.111 225.467 134.578 223.2 134.578 220.4C134.578 217.333 135.245 214.8 136.578 212.8C137.911 210.8 139.578 209.133 141.578 207.8C143.711 206.467 146.045 205.533 148.578 205C151.111 204.467 153.645 204.2 156.178 204.2C160.045 204.2 163.578 204.533 166.778 205.2C170.111 205.867 173.045 207 175.578 208.6C178.111 210.2 180.111 212.4 181.578 215.2C183.178 218 184.111 221.533 184.378 225.8H214.778C214.778 217.533 213.178 210.533 209.978 204.8C206.911 198.933 202.711 194.133 197.378 190.4C192.045 186.667 185.911 184 178.978 182.4C172.178 180.667 165.045 179.8 157.578 179.8C151.178 179.8 144.778 180.667 138.378 182.4C131.978 184.133 126.245 186.8 121.178 190.4C116.111 194 111.978 198.533 108.778 204C105.711 209.333 104.178 215.667 104.178 223C104.178 229.533 105.378 235.133 107.778 239.8C110.311 244.333 113.578 248.133 117.578 251.2C121.578 254.267 126.111 256.8 131.178 258.8C136.245 260.667 141.445 262.267 146.778 263.6C151.978 265.067 157.111 266.4 162.178 267.6C167.245 268.8 171.778 270.2 175.778 271.8C179.778 273.4 182.978 275.4 185.378 277.8C187.911 280.2 189.178 283.333 189.178 287.2C189.178 290.8 188.245 293.8 186.378 296.2C184.511 298.467 182.178 300.267 179.378 301.6C176.578 302.933 173.578 303.867 170.378 304.4C167.178 304.8 164.178 305 161.378 305C157.245 305 153.245 304.533 149.378 303.6C145.511 302.533 142.111 301 139.178 299C136.378 296.867 134.111 294.133 132.378 290.8C130.645 287.467 129.778 283.4 129.778 278.6ZM238.261 183.2V326H267.661V225.8H268.061L303.061 326H327.261L362.261 224.8H362.661V326H392.061V183.2H347.861L316.261 281.4H315.861L282.461 183.2H238.261ZM416.706 183.2V214H429.906C429.906 218.933 428.973 223.133 427.106 226.6C425.24 229.933 421.773 232.467 416.706 234.2V247.4C420.84 246.867 424.64 245.667 428.106 243.8C431.706 241.8 434.773 239.333 437.306 236.4C439.84 233.467 441.773 230.067 443.106 226.2C444.573 222.333 445.24 218.2 445.106 213.8V183.2H416.706ZM459.306 183.2V214H472.506C472.506 218.933 471.573 223.133 469.706 226.6C467.84 229.933 464.373 232.467 459.306 234.2V247.4C463.44 246.867 467.24 245.667 470.706 243.8C474.306 241.8 477.373 239.333 479.906 236.4C482.44 233.467 484.373 230.067 485.706 226.2C487.173 222.333 487.84 218.2 487.706 213.8V183.2H459.306Z" fill="black"/>
<g style="mix-blend-mode:difference">
<rect width="500" height="500" fill="#C4C4C4"/>
<rect width="100" height="500" fill="#04E762"/>
<rect x="100" width="100" height="500" fill="#F5B700"/>
<rect x="200" width="100" height="500" fill="#DC0073"/>
<rect x="300" width="100" height="500" fill="#008BF8"/>
<rect x="400" width="100" height="500" fill="#89FC00"/>
</g>
</svg>
